<?xml version="1.0" standalone="no"?>
<!DOCTYPE svg PUBLIC "-//W3C//DTD SVG 20010904//EN"
 "http://www.w3.org/TR/2001/REC-SVG-20010904/DTD/svg10.dtd">
<svg version="1.0" xmlns="http://www.w3.org/2000/svg"
 width="800.000000pt" height="800.000000pt" viewBox="0 0 800.000000 800.000000"
 preserveAspectRatio="xMidYMid meet">
<metadata>
Created by potrace 1.14, written by Peter Selinger 2001-2017
</metadata>
<g transform="translate(0.000000,800.000000) scale(0.100000,-0.100000)"
fill="#000000" stroke="none">
<path d="M6759 7088 c-12 -5 -36 -15 -53 -22 -17 -8 -130 -53 -251 -101 -121
-47 -229 -90 -240 -95 -11 -5 -123 -50 -250 -100 -126 -50 -239 -95 -250 -100
-11 -5 -202 -82 -425 -170 -223 -88 -414 -165 -425 -170 -24 -11 -546 -220
-560 -224 -5 -2 -23 -8 -40 -15 -16 -7 -127 -51 -245 -98 -118 -46 -224 -89
-235 -93 -11 -5 -76 -32 -145 -59 -69 -27 -138 -55 -155 -62 -16 -7 -32 -13
-35 -14 -12 -4 -67 -26 -85 -34 -11 -5 -96 -40 -190 -76 -93 -37 -183 -74
-199 -81 -16 -8 -33 -14 -39 -14 -9 0 -24 -6 -112 -45 -22 -10 -46 -18 -52
-18 -7 0 -13 -4 -13 -9 0 -4 -11 -8 -24 -8 -14 0 -27 -4 -31 -9 -3 -5 -29 -17
-58 -27 -28 -9 -61 -23 -72 -30 -11 -8 -26 -14 -35 -14 -8 0 -26 -6 -40 -13
-39 -20 -124 -52 -132 -49 -5 1 -8 -3 -8 -8 0 -6 -7 -10 -15 -10 -14 0 -75
-23 -170 -64 -38 -17 -398 -160 -405 -162 -3 0 -18 -6 -35 -13 -16 -7 -154
-62 -305 -122 -311 -124 -332 -134 -350 -163 -15 -23 -228 -450 -640 -1281
-147 -297 -307 -619 -355 -715 -80 -162 -86 -178 -81 -220 10 -76 55 -110 181
-134 11 -3 54 -11 95 -20 41 -8 87 -17 103 -20 15 -3 35 -7 45 -10 9 -3 34 -7
54 -10 21 -2 41 -7 45 -9 4 -3 24 -8 43 -11 19 -3 44 -8 55 -10 27 -6 314 -65
345 -71 14 -3 36 -7 50 -10 14 -3 36 -8 50 -11 14 -2 81 -16 150 -30 69 -14
134 -28 145 -30 11 -2 31 -6 45 -9 14 -3 36 -7 50 -10 14 -3 39 -8 55 -12 17
-3 37 -7 45 -8 8 -1 29 -5 45 -9 40 -9 67 -14 150 -31 39 -8 124 -25 190 -39
66 -14 136 -28 155 -31 19 -3 51 -10 70 -15 19 -5 52 -11 74 -14 21 -4 41 -8
45 -10 3 -2 22 -7 41 -10 32 -5 53 -9 105 -20 11 -2 90 -18 175 -36 85 -18
162 -33 170 -35 8 -2 49 -10 90 -18 41 -9 86 -18 100 -20 14 -3 61 -13 105
-22 44 -9 91 -19 105 -21 33 -6 146 -29 240 -50 41 -9 84 -17 95 -19 11 -1 31
-5 45 -9 14 -3 37 -8 53 -11 45 -8 49 -9 322 -65 110 -23 211 -44 225 -46 14
-3 66 -13 115 -24 50 -10 106 -22 125 -25 19 -3 43 -8 53 -11 11 -3 29 -7 40
-9 19 -3 81 -15 256 -51 13 -3 50 -11 83 -19 32 -7 61 -14 63 -14 3 -1 6 -1 8
-2 1 0 14 -2 28 -4 14 -2 72 -13 129 -25 57 -12 112 -23 124 -25 12 -1 28 -5
36 -7 8 -3 42 -11 75 -17 33 -7 69 -14 80 -16 11 -3 67 -14 125 -26 125 -25
111 -22 235 -48 55 -11 111 -22 125 -25 14 -3 50 -10 80 -16 30 -6 71 -13 90
-16 19 -3 38 -8 41 -10 4 -2 24 -6 45 -10 21 -3 67 -12 103 -20 36 -8 77 -17
91 -19 14 -3 36 -8 50 -11 14 -3 36 -8 50 -10 14 -3 57 -12 95 -20 39 -8 88
-17 109 -20 22 -3 43 -7 46 -9 4 -2 76 -18 161 -35 85 -17 163 -33 174 -36 11
-3 31 -7 45 -9 14 -2 113 -22 220 -44 107 -23 209 -44 225 -46 17 -3 37 -8 45
-10 8 -2 29 -7 45 -9 17 -3 72 -15 124 -26 120 -25 154 -25 209 1 72 35 91 98
67 220 -3 13 -7 36 -10 52 -3 15 -8 42 -11 60 -3 17 -7 41 -8 52 -2 11 -6 34
-9 50 -3 17 -9 46 -11 65 -3 19 -7 44 -10 55 -2 11 -7 42 -10 68 -4 27 -10 59
-12 70 -3 12 -7 33 -9 47 -2 14 -18 108 -35 210 -17 102 -33 201 -36 220 -2
19 -8 55 -13 80 -5 25 -15 79 -21 120 -7 41 -14 84 -16 95 -2 11 -6 34 -9 50
-3 17 -7 44 -10 60 -3 17 -8 46 -11 65 -3 19 -14 85 -24 145 -10 61 -22 128
-25 150 -9 50 -13 73 -19 105 -2 14 -9 57 -15 95 -6 39 -13 81 -16 95 -3 14
-8 41 -11 60 -2 19 -7 46 -9 60 -9 51 -18 105 -30 185 -3 17 -9 53 -14 80 -17
91 -36 204 -46 265 -2 14 -6 39 -9 55 -5 29 -62 372 -71 425 -4 24 -40 234
-50 295 -3 17 -8 41 -10 55 -3 14 -8 43 -11 65 -7 47 -12 70 -14 70 -1 0 -3
14 -5 30 -6 56 -14 102 -31 200 -3 17 -8 44 -10 60 -9 58 -11 70 -18 105 -4
19 -9 46 -11 60 -5 38 -15 99 -25 155 -5 28 -12 66 -14 85 -3 19 -7 44 -10 55
-6 32 -19 119 -20 138 0 9 -3 17 -6 17 -3 0 -5 10 -6 23 0 12 -4 40 -7 62 -21
115 -37 214 -42 250 -3 22 -10 60 -15 85 -5 25 -12 61 -15 80 -2 19 -7 46 -9
60 -2 14 -10 59 -16 100 -7 41 -14 84 -16 95 -9 46 -25 142 -30 175 -2 19 -6
46 -9 60 -11 55 -15 77 -21 115 -11 72 -12 80 -18 115 -20 118 -23 128 -52
166 -35 47 -127 67 -195 42z m-194 -435 c-8 -27 -24 -75 -35 -108 -11 -33 -20
-60 -19 -60 2 0 -89 -291 -98 -315 -3 -8 -8 -21 -10 -27 -1 -7 -5 -19 -6 -25
-2 -7 -7 -20 -10 -28 -3 -8 -24 -76 -47 -150 -23 -74 -44 -142 -47 -150 -3 -8
-7 -19 -8 -25 -4 -14 -105 -337 -112 -355 -3 -8 -8 -21 -10 -27 -1 -7 -5 -19
-6 -25 -2 -7 -7 -20 -10 -28 -3 -8 -24 -76 -47 -150 -23 -74 -50 -160 -60
-190 -10 -30 -40 -122 -65 -205 -26 -82 -62 -197 -80 -255 -44 -139 -144 -456
-157 -500 -6 -19 -11 -37 -12 -40 0 -3 -7 -25 -17 -50 l-17 -44 -83 -18 c-46
-10 -97 -21 -114 -24 -16 -3 -84 -17 -150 -31 -66 -14 -131 -27 -145 -29 -14
-2 -36 -7 -50 -11 -14 -3 -29 -7 -35 -8 -17 -4 -119 -25 -140 -29 -11 -2 -31
-7 -45 -10 -14 -3 -36 -8 -50 -10 -14 -3 -58 -12 -97 -20 -40 -9 -87 -18 -105
-21 -18 -3 -49 -10 -68 -15 -19 -5 -46 -11 -60 -14 -36 -7 -232 -47 -252 -52
-39 -9 -93 -20 -138 -28 -14 -3 -81 -17 -150 -31 -69 -15 -134 -28 -145 -31
-11 -2 -31 -6 -45 -9 -14 -3 -34 -7 -45 -9 -11 -2 -24 -5 -30 -6 -24 -5 -45 3
-122 49 -45 27 -84 47 -86 45 -2 -3 -10 2 -17 11 -7 8 -16 15 -21 15 -4 0 -30
13 -56 28 -26 16 -79 46 -118 67 -38 21 -140 77 -225 125 -85 48 -182 102
-215 120 -74 41 -356 199 -407 228 -21 12 -68 38 -105 58 -37 20 -72 40 -78
44 -5 4 -39 23 -75 42 -92 50 -664 369 -668 372 -1 2 26 13 60 26 35 12 81 31
103 41 22 9 69 29 105 43 36 14 79 30 95 37 17 7 32 13 35 14 6 2 28 11 101
41 32 13 74 30 95 37 22 8 181 72 354 142 173 70 321 127 328 128 6 0 12 4 12
9 0 4 5 8 12 8 11 0 455 174 525 206 17 8 34 14 38 14 4 0 21 7 38 14 18 8 91
38 162 67 72 28 141 56 155 62 14 5 30 11 35 13 14 4 1185 472 1215 486 14 6
29 11 34 9 4 -1 13 3 20 8 6 5 133 57 281 116 149 59 284 113 300 120 17 7 62
25 100 40 39 15 84 33 100 40 17 7 129 52 250 100 121 48 239 95 262 106 24
10 45 19 47 19 3 0 17 5 33 12 51 21 118 46 125 47 4 1 1 -20 -7 -46z m226
-440 c4 -27 15 -91 24 -143 17 -105 22 -133 29 -170 3 -14 8 -41 10 -60 3 -19
8 -46 11 -60 3 -14 8 -41 10 -60 3 -19 7 -46 10 -60 3 -14 8 -43 11 -65 3 -22
8 -49 10 -60 1 -11 5 -36 8 -55 3 -19 8 -46 11 -60 6 -27 9 -49 20 -120 4 -25
9 -54 11 -65 2 -11 7 -33 9 -50 13 -72 25 -142 29 -170 3 -16 12 -73 21 -125
9 -52 18 -104 20 -115 6 -45 37 -232 41 -255 3 -14 7 -38 10 -55 3 -16 9 -55
14 -85 5 -30 12 -71 15 -90 3 -19 12 -71 20 -115 7 -44 17 -98 20 -120 4 -22
9 -49 11 -60 5 -27 10 -61 18 -115 4 -25 10 -58 13 -75 4 -16 8 -41 9 -55 1
-14 3 -25 4 -25 1 0 3 -9 5 -20 4 -28 24 -145 29 -171 6 -29 16 -91 21 -134 3
-19 7 -46 10 -60 3 -14 8 -41 11 -60 3 -19 12 -71 19 -115 8 -44 17 -98 21
-120 9 -63 34 -208 39 -225 2 -8 6 -35 9 -60 4 -25 11 -70 16 -100 6 -30 12
-71 15 -90 2 -19 7 -46 10 -60 3 -14 8 -42 11 -64 3 -21 8 -48 10 -60 3 -11 7
-39 10 -61 3 -22 7 -47 10 -56 2 -9 7 -34 10 -55 5 -39 9 -69 19 -114 11 -58
16 -87 21 -125 6 -46 10 -70 18 -105 3 -14 8 -43 11 -64 5 -37 8 -51 20 -112
5 -22 4 -24 -7 -12 -19 20 -70 88 -98 130 -14 21 -28 38 -32 38 -5 0 -8 6 -8
14 0 8 -4 16 -8 18 -5 2 -28 32 -53 68 -24 36 -49 69 -55 75 -6 5 -33 42 -60
80 -27 39 -52 72 -56 73 -5 2 -8 10 -8 17 0 7 -3 15 -7 17 -13 5 -73 86 -73
97 0 5 -4 11 -8 13 -8 3 -286 380 -307 416 -5 9 -12 19 -15 22 -3 3 -30 39
-60 80 -30 41 -58 77 -62 78 -5 2 -8 8 -8 12 0 7 -80 120 -143 201 -7 8 -16
23 -22 31 -26 41 -280 383 -287 386 -4 2 -8 8 -8 13 0 5 -38 60 -85 122 -89
119 -88 117 -62 197 8 25 36 113 62 195 26 83 65 206 87 274 22 68 41 129 42
135 1 6 17 56 35 111 18 55 34 105 35 110 1 6 22 71 45 145 37 114 66 208 107
340 5 14 9 27 9 30 1 3 4 12 8 20 6 17 31 92 32 100 1 6 4 15 50 160 18 58 54
173 80 255 26 83 63 199 82 258 19 59 36 113 37 120 7 35 41 135 45 132 2 -3
8 -26 12 -52z m-5386 -1773 c17 -10 57 -32 90 -50 33 -18 110 -61 170 -95 61
-34 137 -77 170 -95 33 -18 74 -41 90 -50 17 -9 57 -32 90 -50 33 -18 130 -72
215 -120 85 -48 187 -104 225 -125 39 -21 84 -47 100 -57 17 -10 37 -21 45
-25 8 -4 42 -23 75 -42 33 -20 62 -36 65 -36 3 0 25 -12 50 -27 120 -69 242
-138 245 -138 3 0 48 -25 102 -55 54 -31 104 -59 112 -63 19 -10 16 -25 -6
-29 -10 -2 -29 -5 -43 -8 -41 -7 -81 -15 -170 -35 -47 -10 -98 -21 -115 -24
-16 -3 -39 -8 -50 -10 -64 -14 -164 -35 -190 -40 -16 -3 -93 -19 -170 -36 -77
-17 -156 -33 -175 -36 -47 -8 -65 -12 -65 -14 0 -1 -9 -3 -20 -5 -23 -3 -69
-12 -105 -21 -14 -3 -34 -7 -45 -9 -11 -2 -40 -8 -65 -14 -40 -9 -69 -15 -135
-27 -11 -2 -60 -13 -110 -24 -49 -11 -105 -23 -124 -26 -18 -3 -43 -8 -55 -10
-11 -3 -32 -7 -46 -10 -14 -3 -45 -10 -70 -15 -61 -14 -72 -16 -115 -23 -20
-4 -41 -8 -45 -11 -5 -3 -21 -7 -37 -9 -15 -2 -172 -34 -348 -71 -176 -37
-331 -69 -345 -71 -14 -3 -54 -12 -89 -20 -35 -8 -65 -13 -67 -11 -2 2 69 149
158 328 89 178 162 326 163 329 1 3 118 240 260 526 l258 522 46 -25 c25 -14
60 -33 76 -43z m4391 -883 c7 -9 14 -19 14 -21 0 -4 27 -41 169 -233 25 -33
64 -87 86 -118 22 -32 45 -63 50 -69 6 -6 44 -58 85 -116 41 -58 80 -111 87
-118 7 -7 20 -26 30 -42 9 -17 21 -30 25 -30 4 0 8 -7 8 -15 0 -7 6 -18 13
-22 6 -4 26 -28 42 -53 16 -25 32 -47 35 -50 3 -3 17 -21 30 -40 14 -19 28
-39 33 -45 4 -5 73 -100 153 -210 80 -110 150 -207 157 -215 7 -8 46 -62 87
-120 41 -58 77 -107 80 -110 3 -3 39 -52 80 -109 41 -57 86 -119 100 -138 76
-104 130 -183 126 -183 -3 0 -27 13 -54 29 -47 27 -75 43 -197 111 -33 18 -75
42 -92 52 -82 46 -103 57 -178 98 -44 23 -84 46 -90 50 -9 6 -64 37 -190 105
-22 12 -62 35 -90 50 -122 69 -375 210 -425 237 -30 17 -89 50 -130 73 -73 41
-126 71 -260 143 -36 19 -66 39 -68 43 -2 5 -9 9 -14 9 -10 0 -91 44 -243 130
-22 13 -58 33 -80 45 -22 12 -101 55 -175 97 -127 71 -168 94 -272 152 -24 13
-59 32 -78 43 -19 11 -71 39 -115 63 -44 24 -102 56 -128 72 -26 15 -52 28
-57 28 -6 0 -10 5 -10 10 0 6 -4 10 -10 10 -5 0 -57 27 -116 59 l-107 59 43
12 c24 7 55 13 69 15 14 2 26 4 26 5 0 2 20 6 65 15 19 3 63 12 98 20 34 8 77
17 95 20 17 4 95 19 172 36 77 16 149 31 160 33 11 2 31 7 45 10 14 3 36 8 50
10 14 2 48 10 75 16 28 6 57 13 65 15 41 7 96 19 105 21 19 5 120 26 150 30
17 3 46 9 65 14 19 5 49 12 65 14 17 3 41 8 55 11 53 12 126 27 145 31 11 2
36 8 55 12 37 10 35 11 86 -51z m-2068 -413 c37 -20 85 -47 107 -59 129 -74
152 -87 168 -92 9 -3 17 -9 17 -14 0 -5 5 -9 11 -9 6 0 63 -29 126 -65 63 -36
117 -65 119 -65 2 0 21 -11 42 -23 20 -13 66 -40 102 -59 69 -38 120 -66 240
-133 111 -62 169 -94 230 -128 30 -16 89 -48 130 -72 112 -63 168 -94 240
-133 36 -19 70 -38 75 -42 6 -4 36 -21 68 -39 84 -46 154 -85 222 -123 33 -19
67 -37 75 -41 8 -4 33 -18 55 -30 22 -13 69 -39 105 -59 36 -20 108 -60 160
-89 52 -30 109 -61 125 -69 17 -8 32 -17 35 -21 3 -3 21 -13 40 -22 19 -10 49
-26 65 -36 34 -20 101 -57 220 -122 44 -23 82 -45 85 -48 3 -3 21 -14 40 -23
19 -10 67 -35 105 -57 39 -22 94 -52 123 -68 28 -15 52 -30 52 -34 0 -4 -28
-1 -62 7 -35 7 -151 31 -258 53 -107 22 -208 43 -225 46 -16 4 -50 10 -75 15
-87 16 -95 18 -139 30 -23 6 -45 9 -48 6 -3 -3 -13 -1 -22 4 -9 4 -37 11 -61
15 -25 4 -47 8 -51 10 -3 2 -21 7 -40 10 -19 3 -54 10 -79 15 -25 5 -56 12
-70 14 -14 3 -70 14 -125 26 -55 11 -113 23 -130 26 -16 3 -80 16 -142 29 -61
14 -124 27 -140 30 -58 11 -79 15 -103 20 -14 3 -36 8 -50 11 -14 3 -92 18
-175 35 -82 17 -159 32 -170 35 -11 2 -43 8 -71 14 -28 6 -62 13 -76 15 -15 3
-113 23 -220 46 -197 41 -274 57 -318 65 -14 3 -112 23 -218 44 -107 22 -206
42 -220 45 -15 3 -38 7 -52 10 -14 3 -36 8 -50 10 -14 3 -47 10 -75 16 -27 6
-59 12 -70 14 -11 2 -85 17 -165 34 -80 17 -157 32 -173 35 -15 3 -35 7 -45
10 -19 6 -57 13 -112 22 -19 3 -43 7 -52 10 -10 3 -30 8 -45 10 -16 3 -91 19
-168 35 -77 17 -151 32 -165 34 -14 2 -38 6 -55 10 -45 10 -168 36 -185 39
-70 14 -96 20 -105 22 -5 1 -25 5 -43 8 -18 4 -64 13 -102 21 -38 8 -82 17
-97 20 -34 6 -63 12 -128 25 -27 6 -60 12 -73 15 -13 2 -31 7 -40 9 -10 3 -33
8 -52 11 -47 8 -56 9 -200 40 -69 14 -136 28 -150 31 -14 2 -45 9 -70 14 -25
6 -56 12 -70 14 -14 3 -25 5 -25 7 0 1 -9 3 -20 4 -52 6 -135 27 -135 34 0 8
75 26 92 23 4 -1 18 2 31 7 13 5 41 12 63 15 52 8 180 35 224 46 19 5 51 12
70 15 19 3 86 17 148 31 63 13 128 26 145 29 18 3 61 13 97 21 36 8 81 17 100
20 19 3 51 9 70 14 19 5 49 12 67 15 17 3 85 17 150 31 65 14 127 27 138 28
11 2 31 6 45 10 14 3 36 8 50 11 27 5 213 44 245 51 11 2 34 7 50 10 17 3 50
10 75 15 25 6 54 12 65 15 11 2 43 8 70 14 28 6 59 12 70 14 11 2 31 7 45 10
14 3 36 8 50 10 14 3 57 11 95 20 77 16 104 22 150 31 17 3 84 18 150 32 66
14 134 27 150 30 17 3 32 7 34 9 9 9 25 3 89 -32z"/>
</g>
</svg>
