<svg width="0" height="0" class="hidden" xmlns="http://www.w3.org/2000/svg">
  <symbol id="header-cart"  viewBox="0 0 18.94 16.969">
    <path d="M5.53 16.978a2.074 2.074 0 110-4.147 2.056 2.056 0 011.46.6 2.03 2.03 0 01.61 1.466 2.071 2.071 0 01-2.07 2.081zm0-2.963a.889.889 0 10.34 1.71.9.9 0 00.55-.824.92.92 0 00-.26-.629.9.9 0 00-.63-.257zm8.39 2.963a2.045 2.045 0 01-1.46-.607 2.068 2.068 0 011.46-3.54 1.953 1.953 0 011.47.6 2.085 2.085 0 01-.67 3.383 2.093 2.093 0 01-.8.164zm0-2.963a.978.978 0 00-.82.548.887.887 0 001.16 1.161.891.891 0 00.29-1.452.9.9 0 00-.63-.257zm-11.27.164a.562.562 0 01-.25-.056.59.59 0 01-.29-.787 3.686 3.686 0 013.05-2.151L4.11 5.794a.591.591 0 111.16-.228l1.09 5.578h9.43l1.8-6.771H4.29A4.346 4.346 0 01.01.68.587.587 0 01.5.007a.6.6 0 01.68.5 3.159 3.159 0 003.11 2.682h14.07a.582.582 0 01.47.232.594.594 0 01.11.513l-2.13 7.956a.59.59 0 01-.57.44H5.88a.03.03 0 00-.02 0 2.66 2.66 0 00-2.68 1.51.586.586 0 01-.53.338z"></path>
  </symbol>
  <symbol id="header-heart" viewBox="0 0 19 17">
    <path d="M9.913 16.244a.714.714 0 01-.28-.056C9.28 16.039.983 12.439.983 5.429 1.074 2.779 3.19.721 5.801.721c1.743 0 3.266.918 4.112 2.31a4.796 4.796 0 014.112-2.31c2.609 0 4.725 2.058 4.817 4.684 0 7.034-8.297 10.634-8.649 10.783a.718.718 0 01-.28.056zM5.801 2.106c-1.847 0-3.343 1.47-3.408 3.346 0 5.408 6.125 8.663 7.52 9.335 1.395-.672 7.52-3.93 7.52-9.358-.065-1.853-1.563-3.323-3.408-3.323s-3.342 1.47-3.408 3.346a.698.698 0 01-.704.669.7.7 0 01-.705-.669c-.064-1.876-1.561-3.346-3.407-3.346z"></path>
  </symbol>
  <symbol id="header-more" viewBox="0 0 20.03 20.031">
    <path d="M2.15 4.287a2.146 2.146 0 112.14-2.145 2.145 2.145 0 01-2.14 2.145zm0 7.869a2.146 2.146 0 112.14-2.147 2.146 2.146 0 01-2.14 2.147zm0 7.868a2.146 2.146 0 112.14-2.146 2.145 2.145 0 01-2.14 2.146zm7.86-15.737a2.146 2.146 0 112.15-2.145 2.143 2.143 0 01-2.15 2.145zm0 7.869a2.146 2.146 0 112.15-2.147 2.144 2.144 0 01-2.15 2.147zm0 7.868a2.146 2.146 0 112.15-2.146 2.143 2.143 0 01-2.15 2.146zm7.87-15.737a2.146 2.146 0 112.15-2.145 2.143 2.143 0 01-2.15 2.145zm0 7.869a2.146 2.146 0 112.15-2.147 2.144 2.144 0 01-2.15 2.147zm0 7.868a2.146 2.146 0 112.15-2.146 2.143 2.143 0 01-2.15 2.146z"></path>
  </symbol>
  <symbol id="header-search" viewBox="0 0 15.28 15.281">
    <path d="M2.98 6.076a.617.617 0 01.75.485 2.583 2.583 0 00.78 1.489A3.036 3.036 0 006 8.827a.636.636 0 01.49.743.649.649 0 01-.72.515 4.21 4.21 0 01-2.14-1.13A4.164 4.164 0 012.5 6.819a.6.6 0 01.48-.743zM6.26 0a6.267 6.267 0 016.28 6.257 6.136 6.136 0 01-.57 2.6l2.34 2.036c1.7 1.746.74 3.266.29 3.717-.42.454-1.99 1.414-3.73-.292l-2.06-2.35A6.261 6.261 0 116.26 0zm5.55 13.517a1.352 1.352 0 001.88.226 1.313 1.313 0 00-.23-1.874l-2.16-1.88a6.236 6.236 0 01-1.37 1.34zm-5.55-2.312a4.948 4.948 0 10-4.97-4.948A4.963 4.963 0 006.26 11.2z"></path>
  </symbol>
  <symbol id="arrow-right" viewBox="0 0 22 9">
    <path d="M.3 5.472h16.948l-.1 2.857a.292.292 0 000 .41l.172.172a.28.28 0 00.2.086.285.285 0 00.2-.084l4.193-4.211A.292.292 0 0022 4.5a.283.283 0 00-.084-.2L17.723.087a.289.289 0 00-.407 0l-.172.173a.287.287 0 00-.084.2.278.278 0 00.084.2l.113 2.865H.292A.3.3 0 000 3.82v1.37a.292.292 0 00.3.282z"></path>
  </symbol>
  <symbol id="tools-search" viewBox="0 0 20 20">
    <path d="M19.45 16.8l-4.588-4.59a8.827 8.827 0 01-2.651 2.65l4.588 4.59a1.874 1.874 0 002.651-2.65zM15 7.5A7.5 7.5 0 107.5 15 7.5 7.5 0 0015 7.5zm-7.5 5.62a5.625 5.625 0 115.625-5.62A5.628 5.628 0 017.5 13.12zM3.125 7.5h1.25A3.135 3.135 0 017.5 4.37V3.12A4.386 4.386 0 003.125 7.5z"></path>
  </symbol>
  <symbol id="tools-cart" viewBox="0 0 22 20">
    <path d="M.814 1.63h2.333L6.47 13.67a.812.812 0 00.787.59h10.214a.821.821 0 00.746-.48l3.717-8.56a.836.836 0 00-.068-.78.813.813 0 00-.678-.37H9.9a.82.82 0 000 1.64h10.04l-3.011 6.92H7.867L4.544.6a.808.808 0 00-.787-.6H.814a.815.815 0 000 1.63zM6.484 20a1.85 1.85 0 10-1.845-1.85A1.85 1.85 0 006.484 20zm11.53 0h.135a1.907 1.907 0 10-.135 0z"></path>
  </symbol>
  <symbol id="tools-heart" viewBox="0 0 22 18">
    <path d="M21.99 5.82a6.208 6.208 0 00-1.849-4.1A5.871 5.871 0 0016 0c-2.311 0-3.948 1.78-4.827 2.74a2.156 2.156 0 01-.156.17l-.083-.09C10.134 1.9 8.458 0 5.996 0a5.873 5.873 0 00-4.139 1.72 6.208 6.208 0 00-1.849 4.1 6.845 6.845 0 001.271 4.34 29.307 29.307 0 004.763 4.75C7.747 16.32 9.992 18 11.007 18c1.032 0 3.269-1.68 4.965-3.09a29.234 29.234 0 004.746-4.75 6.935 6.935 0 001.272-4.34zm-2.376 3.61a27 27 0 01-4.431 4.42c-2.406 2-3.831 2.79-4.172 2.82-.342-.03-1.77-.83-4.188-2.84a26.78 26.78 0 01-4.437-4.4 5.6 5.6 0 01-1.054-3.54 4.807 4.807 0 014.666-4.57c1.863 0 3.216 1.54 3.943 2.37A1.52 1.52 0 0011 4.45a1.731 1.731 0 001.151-.81c.794-.87 2.122-2.32 3.851-2.32a4.807 4.807 0 014.666 4.57 5.528 5.528 0 01-1.054 3.54z"></path>
  </symbol>
  <symbol id="video-play" viewBox="0 0 22 25">
    <path d="M20.684 14.74L4.64 24.54a3.228 3.228 0 01-3.062.14 2.685 2.685 0 01-1.579-2.39V2.7A2.685 2.685 0 011.578.31 3.258 3.258 0 014.64.46l16.044 9.79A2.666 2.666 0 0122 12.5a2.638 2.638 0 01-1.316 2.24z"></path>
  </symbol>
  <symbol id="short-arrow" viewBox="0 0 6.1 10.97">
    <path d="M.55 10.97a.53.53 0 01-.41-.19.6.6 0 01-.15-.4.631.631 0 01.17-.43l4.55-4.47L.16 1A.607.607 0 01-.01.58.629.629 0 01.14.17a.559.559 0 01.8-.02l4.98 4.9.01.01a.657.657 0 01.12.17.7.7 0 01.05.25.742.742 0 01-.05.25.61.61 0 01-.12.16c0 .01-.01.01-.01.02l-4.98 4.9a.589.589 0 01-.39.16z"></path>
  </symbol>
</svg>