<svg width="0" height="0" class="hidden" xmlns="http://www.w3.org/2000/svg">
  <symbol id="header-cart"  viewBox="0 0 18.94 16.969">
    <path d="M5.53 16.978a2.074 2.074 0 110-4.147 2.056 2.056 0 011.46.6 2.03 2.03 0 01.61 1.466 2.071 2.071 0 01-2.07 2.081zm0-2.963a.889.889 0 10.34 1.71.9.9 0 00.55-.824.92.92 0 00-.26-.629.9.9 0 00-.63-.257zm8.39 2.963a2.045 2.045 0 01-1.46-.607 2.068 2.068 0 011.46-3.54 1.953 1.953 0 011.47.6 2.085 2.085 0 01-.67 3.383 2.093 2.093 0 01-.8.164zm0-2.963a.978.978 0 00-.82.548.887.887 0 001.16 1.161.891.891 0 00.29-1.452.9.9 0 00-.63-.257zm-11.27.164a.562.562 0 01-.25-.056.59.59 0 01-.29-.787 3.686 3.686 0 013.05-2.151L4.11 5.794a.591.591 0 111.16-.228l1.09 5.578h9.43l1.8-6.771H4.29A4.346 4.346 0 01.01.68.587.587 0 01.5.007a.6.6 0 01.68.5 3.159 3.159 0 003.11 2.682h14.07a.582.582 0 01.47.232.594.594 0 01.11.513l-2.13 7.956a.59.59 0 01-.57.44H5.88a.03.03 0 00-.02 0 2.66 2.66 0 00-2.68 1.51.586.586 0 01-.53.338z"></path>
  </symbol>
  <symbol id="header-heart" viewBox="0 0 19 17">
    <path d="M9.913 16.244a.714.714 0 01-.28-.056C9.28 16.039.983 12.439.983 5.429 1.074 2.779 3.19.721 5.801.721c1.743 0 3.266.918 4.112 2.31a4.796 4.796 0 014.112-2.31c2.609 0 4.725 2.058 4.817 4.684 0 7.034-8.297 10.634-8.649 10.783a.718.718 0 01-.28.056zM5.801 2.106c-1.847 0-3.343 1.47-3.408 3.346 0 5.408 6.125 8.663 7.52 9.335 1.395-.672 7.52-3.93 7.52-9.358-.065-1.853-1.563-3.323-3.408-3.323s-3.342 1.47-3.408 3.346a.698.698 0 01-.704.669.7.7 0 01-.705-.669c-.064-1.876-1.561-3.346-3.407-3.346z"></path>
  </symbol>
  <symbol id="header-more" viewBox="0 0 20.03 20.031">
    <path d="M2.15 4.287a2.146 2.146 0 112.14-2.145 2.145 2.145 0 01-2.14 2.145zm0 7.869a2.146 2.146 0 112.14-2.147 2.146 2.146 0 01-2.14 2.147zm0 7.868a2.146 2.146 0 112.14-2.146 2.145 2.145 0 01-2.14 2.146zm7.86-15.737a2.146 2.146 0 112.15-2.145 2.143 2.143 0 01-2.15 2.145zm0 7.869a2.146 2.146 0 112.15-2.147 2.144 2.144 0 01-2.15 2.147zm0 7.868a2.146 2.146 0 112.15-2.146 2.143 2.143 0 01-2.15 2.146zm7.87-15.737a2.146 2.146 0 112.15-2.145 2.143 2.143 0 01-2.15 2.145zm0 7.869a2.146 2.146 0 112.15-2.147 2.144 2.144 0 01-2.15 2.147zm0 7.868a2.146 2.146 0 112.15-2.146 2.143 2.143 0 01-2.15 2.146z"></path>
  </symbol>
  <symbol id="header-search" viewBox="0 0 15.28 15.281">
    <path d="M2.98 6.076a.617.617 0 01.75.485 2.583 2.583 0 00.78 1.489A3.036 3.036 0 006 8.827a.636.636 0 01.49.743.649.649 0 01-.72.515 4.21 4.21 0 01-2.14-1.13A4.164 4.164 0 012.5 6.819a.6.6 0 01.48-.743zM6.26 0a6.267 6.267 0 016.28 6.257 6.136 6.136 0 01-.57 2.6l2.34 2.036c1.7 1.746.74 3.266.29 3.717-.42.454-1.99 1.414-3.73-.292l-2.06-2.35A6.261 6.261 0 116.26 0zm5.55 13.517a1.352 1.352 0 001.88.226 1.313 1.313 0 00-.23-1.874l-2.16-1.88a6.236 6.236 0 01-1.37 1.34zm-5.55-2.312a4.948 4.948 0 10-4.97-4.948A4.963 4.963 0 006.26 11.2z"></path>
  </symbol>
  <symbol id="arrow-right" viewBox="0 0 22 9">
    <path d="M.3 5.472h16.948l-.1 2.857a.292.292 0 000 .41l.172.172a.28.28 0 00.2.086.285.285 0 00.2-.084l4.193-4.211A.292.292 0 0022 4.5a.283.283 0 00-.084-.2L17.723.087a.289.289 0 00-.407 0l-.172.173a.287.287 0 00-.084.2.278.278 0 00.084.2l.113 2.865H.292A.3.3 0 000 3.82v1.37a.292.292 0 00.3.282z"></path>
  </symbol>
  <symbol id="tools-search" viewBox="0 0 20 20">
    <path d="M19.45 16.8l-4.588-4.59a8.827 8.827 0 01-2.651 2.65l4.588 4.59a1.874 1.874 0 002.651-2.65zM15 7.5A7.5 7.5 0 107.5 15 7.5 7.5 0 0015 7.5zm-7.5 5.62a5.625 5.625 0 115.625-5.62A5.628 5.628 0 017.5 13.12zM3.125 7.5h1.25A3.135 3.135 0 017.5 4.37V3.12A4.386 4.386 0 003.125 7.5z"></path>
  </symbol>
  <symbol id="tools-cart" viewBox="0 0 22 20">
    <path d="M.814 1.63h2.333L6.47 13.67a.812.812 0 00.787.59h10.214a.821.821 0 00.746-.48l3.717-8.56a.836.836 0 00-.068-.78.813.813 0 00-.678-.37H9.9a.82.82 0 000 1.64h10.04l-3.011 6.92H7.867L4.544.6a.808.808 0 00-.787-.6H.814a.815.815 0 000 1.63zM6.484 20a1.85 1.85 0 10-1.845-1.85A1.85 1.85 0 006.484 20zm11.53 0h.135a1.907 1.907 0 10-.135 0z"></path>
  </symbol>
  <symbol id="tools-heart" viewBox="0 0 22 18">
    <path d="M21.99 5.82a6.208 6.208 0 00-1.849-4.1A5.871 5.871 0 0016 0c-2.311 0-3.948 1.78-4.827 2.74a2.156 2.156 0 01-.156.17l-.083-.09C10.134 1.9 8.458 0 5.996 0a5.873 5.873 0 00-4.139 1.72 6.208 6.208 0 00-1.849 4.1 6.845 6.845 0 001.271 4.34 29.307 29.307 0 004.763 4.75C7.747 16.32 9.992 18 11.007 18c1.032 0 3.269-1.68 4.965-3.09a29.234 29.234 0 004.746-4.75 6.935 6.935 0 001.272-4.34zm-2.376 3.61a27 27 0 01-4.431 4.42c-2.406 2-3.831 2.79-4.172 2.82-.342-.03-1.77-.83-4.188-2.84a26.78 26.78 0 01-4.437-4.4 5.6 5.6 0 01-1.054-3.54 4.807 4.807 0 014.666-4.57c1.863 0 3.216 1.54 3.943 2.37A1.52 1.52 0 0011 4.45a1.731 1.731 0 001.151-.81c.794-.87 2.122-2.32 3.851-2.32a4.807 4.807 0 014.666 4.57 5.528 5.528 0 01-1.054 3.54z"></path>
  </symbol>
  <symbol id="video-play" viewBox="0 0 22 25">
    <path d="M20.684 14.74L4.64 24.54a3.228 3.228 0 01-3.062.14 2.685 2.685 0 01-1.579-2.39V2.7A2.685 2.685 0 011.578.31 3.258 3.258 0 014.64.46l16.044 9.79A2.666 2.666 0 0122 12.5a2.638 2.638 0 01-1.316 2.24z"></path>
  </symbol>
  <symbol id="short-arrow" viewBox="0 0 6.1 10.97">
    <path d="M.55 10.97a.53.53 0 01-.41-.19.6.6 0 01-.15-.4.631.631 0 01.17-.43l4.55-4.47L.16 1A.607.607 0 01-.01.58.629.629 0 01.14.17a.559.559 0 01.8-.02l4.98 4.9.01.01a.657.657 0 01.12.17.7.7 0 01.05.25.742.742 0 01-.05.25.61.61 0 01-.12.16c0 .01-.01.01-.01.02l-4.98 4.9a.589.589 0 01-.39.16z"></path>
  </symbol>
  <symbol id="menu" viewBox="0 0 663683.624 441002.152">
    <rect x="6505.418" y="369428.426" width="650670.185" height="65067.025" rx="88094.775" ry="52053.46"></rect>
    <rect x="6505.418" y="248454.518" width="650670.185" height="65067.025" rx="88094.775" ry="52053.46"></rect>
    <rect x="6505.418" y="127480.609" width="650670.185" height="65067.025" rx="88094.775" ry="52053.46"></rect>
    <rect x="6505.418" y="6506.701" width="650670.185" height="65067.025" rx="88094.775" ry="52053.46"></rect>
  </symbol>
  <symbol id="close-btn" viewBox="0 0 32.448 32.448">
    <path d="M3.845.751l12.379 12.378L28.603.75c2.033-2.033 5.128 1.062 3.095 3.095L19.319 16.224l12.379 12.379c2.033 2.033-1.062 5.128-3.095 3.095L16.224 19.319 3.845 31.697C1.812 33.731-1.283 30.636.75 28.603l12.379-12.379L.75 3.845C-1.283 1.812 1.812-1.283 3.845.751z"></path>
  </symbol>
  <symbol viewBox="0 0 20 15" id="list">
    <path d="M.007 0h4.422v4.172H.007V0zm5.828 0h14.159v4.172H5.835V0zM.007 5.413h4.422v4.172H.007V5.413zm5.828 0h14.159v4.172H5.835V5.413zM.007 10.827h4.422V15H.007v-4.171zm5.828 0h14.159V15H5.835v-4.171z"></path>
  </symbol>
  <symbol viewBox="0 0 15 15" id="grid">
    <path d="M0 3.75h3.75V0H0v3.75zM5.625 15h3.75v-3.75h-3.75V15zM0 15h3.75v-3.75H0V15zm0-5.625h3.75v-3.75H0v3.75zm5.625 0h3.75v-3.75h-3.75v3.75zM11.25 0v3.75H15V0h-3.75zM5.625 3.75h3.75V0h-3.75v3.75zm5.625 5.625H15v-3.75h-3.75v3.75zm0 5.625H15v-3.75h-3.75V15z"></path>
  </symbol>
  <symbol viewBox="0 0 512 512" id="funnel">
    <path d="M487.976 0H24.028C2.71 0-8.047 25.866 7.058 40.971L192 225.941V432c0 7.831 3.821 15.17 10.237 19.662l80 55.98C298.02 518.69 320 507.493 320 487.98V225.941l184.947-184.97C520.021 25.896 509.338 0 487.976 0z"></path>
  </symbol>
  <symbol viewBox="0 0 22.66 14.38" id="g+">
    <path d="M6.72 14.35A7.121 7.121 0 01.13 8.7a6.6 6.6 0 01-.14-1.93A7.277 7.277 0 015.48.21 5.282 5.282 0 016.66.02c.23-.01.46-.02.69-.02a6.786 6.786 0 013.4.93 9.386 9.386 0 011.27.93c-.72.71-1.41 1.4-2.11 2.09a3.914 3.914 0 00-2.1-1.02 4.259 4.259 0 00-.61-.04 4.307 4.307 0 00-4.14 3.35 3.817 3.817 0 00-.1 1.3 4.3 4.3 0 002.94 3.74 4.35 4.35 0 001.25.19c.1 0 .2-.01.3-.01a4.2 4.2 0 002.09-.67 3.314 3.314 0 001.43-2.17H7.12c0-.09.02-1.89.02-2.76l.01-.12h6.76a7.773 7.773 0 01-1.28 6.05 6.273 6.273 0 01-3.55 2.32 7.539 7.539 0 01-1.94.25c-.14 0-.28 0-.42-.01zm13.33-4.05h-1.89v-.07l.02-2.43h-2.51v-.08l.02-1.82v-.07h2.5l.02-2.43v-.07h1.96v.07l-.02 2.43h2.51v.07l-.01 1.82v.08h-2.51l-.02 2.43v.07h-.07z"></path>
  </symbol>
  <symbol viewBox="0 0 17.19 17.19" id="inst">
    <path d="M3.59 16.94a4.322 4.322 0 01-3.43-3.75C-.07 11.74-.09 5 .33 3.54A4.387 4.387 0 014.08.19 34.173 34.173 0 018.39 0c1.6 0 3.22.04 4.19.1a4.724 4.724 0 013.14 1.28 4.517 4.517 0 011.38 2.94c.12 1.35.21 7.74-.19 9.24a4.411 4.411 0 01-3.8 3.44 42.333 42.333 0 01-4.74.19 29.143 29.143 0 01-4.78-.25zm.92-15.26a2.958 2.958 0 00-2.75 2.59 57.587 57.587 0 00-.06 8.69 2.8 2.8 0 002.12 2.43 27.569 27.569 0 004.63.25c1.8 0 3.57-.06 4.24-.13a2.941 2.941 0 002.75-2.6 61.315 61.315 0 00.11-8.45 2.9 2.9 0 00-2.58-2.74 40.212 40.212 0 00-4.3-.16c-1.71 0-3.41.04-4.16.12zM4.19 8.6a4.445 4.445 0 014.45-4.41 4.37 4.37 0 014.37 4.41 4.458 4.458 0 01-4.45 4.41A4.37 4.37 0 014.19 8.6zm1.55-.03a2.834 2.834 0 002.81 2.88h.02a2.882 2.882 0 002.88-2.82 2.82 2.82 0 00-2.8-2.88h-.03a2.881 2.881 0 00-2.88 2.82zm6.45-4.55a1.029 1.029 0 011.03-1.03h.01a1.016 1.016 0 011.02 1.04 1.035 1.035 0 01-1.04 1.02 1.014 1.014 0 01-1.02-1.03z"></path>
  </symbol>
  <symbol viewBox="0 0 8.13 15.44" id="facebook">
    <path d="M6.1 0c.41 0 .83.03 1.24.05.27.01.54.04.79.07l-.02 2.49h-.2c-.27 0-.54-.01-.82-.01-.2 0-.4.01-.61.01A1.041 1.041 0 005.3 3.7c-.02.6-.03 1.9-.03 1.97.03 0 .68.01 1.34.01.32 0 .64 0 .87-.01h.53c-.13.96-.26 1.87-.39 2.8H5.27l-.06 6.97H2.32l.06-6.99H.01l.02-2.77h2.38v-.21c.01-.56 0-1.12.02-1.68a7.581 7.581 0 01.09-1.06A3.145 3.145 0 013.79.65 3.6 3.6 0 015.87.01c.08 0 .15-.01.23-.01z"></path>
  </symbol>
  <symbol viewBox="0 0 14.31 11.62" id="twitter">
    <path d="M14.31 1.4c-.11.16-.21.3-.33.45a5.7 5.7 0 01-1.07 1.01l-.05.09a8.22 8.22 0 01-.07 1.31 8.818 8.818 0 01-.77 2.61 8.712 8.712 0 01-1.6 2.3 7.864 7.864 0 01-4.05 2.25 8.967 8.967 0 01-1.64.2h-.26a8.172 8.172 0 01-4.42-1.27l-.07-.04a5.322 5.322 0 00.69.04 6.049 6.049 0 002.25-.44 5.834 5.834 0 001.4-.82 2.9 2.9 0 01-2.71-2.03 3.287 3.287 0 00.54.05 2.82 2.82 0 00.71-.09L2.91 7A2.9 2.9 0 01.59 4.1a2.914 2.914 0 001.31.35A2.914 2.914 0 01.7 2.67 2.877 2.877 0 011.04.55a8.311 8.311 0 006.02 3.07c-.02-.12-.03-.22-.05-.33a2.8 2.8 0 01.45-1.91A2.853 2.853 0 019.45.05a3.439 3.439 0 01.54-.04 2.833 2.833 0 012.03.86.139.139 0 00.1.05.09.09 0 00.05-.01 5.547 5.547 0 001.71-.65l.04-.02a2.919 2.919 0 01-1.25 1.6 5.859 5.859 0 001.64-.44z"></path>
  </symbol>
  <symbol viewBox="0 0 15 11" id="arrow-right-md">
    <path d="M8.931 11.01a.673.673 0 00.425-.16l5.434-4.92c.007 0 .013-.01.019-.01l.031-.03v-.01a.567.567 0 00.138-.47.6.6 0 00-.155-.31l-.033-.03L9.355.16a.65.65 0 00-.874.02.578.578 0 00.024.84l4.311 3.89H.631a.608.608 0 00-.617.59.6.6 0 00.617.59h12.186l-4.311 3.9a.566.566 0 00-.024.83.608.608 0 00.449.19z"></path>
  </symbol>
  <symbol viewBox="0 0 17.03 17" id="search">
    <path d="M16.44 17.014a.6.6 0 01-.42-.174l-5.3-5.3a6.515 6.515 0 11.84-.839l5.3 5.3a.6.6 0 010 .839.6.6 0 01-.42.174zM6.54 1.181a5.344 5.344 0 105.35 5.344 5.351 5.351 0 00-5.35-5.344z"></path>
  </symbol>
  <symbol viewBox="0 0 18 12.38" id="envelope">
    <path d="M16.71 12.37H1.29A1.262 1.262 0 010 11.14v-9.9A1.27 1.27 0 011.29 0h15.42A1.27 1.27 0 0118 1.24v9.9a1.262 1.262 0 01-1.29 1.23zM1.29.83a.417.417 0 00-.43.41v9.9a.423.423 0 00.43.41h15.42a.423.423 0 00.43-.41v-9.9a.417.417 0 00-.43-.41H1.29zM9 6.42a1.319 1.319 0 01-.74-.23L.48.95a.4.4 0 01-.1-.57.428.428 0 01.59-.1l7.78 5.24a.454.454 0 00.5 0L17.03.28a.428.428 0 01.59.1.4.4 0 01-.1.57L9.74 6.19a1.319 1.319 0 01-.74.23zm8.32 5.71a.423.423 0 01-.3-.12L10.4 5.65a.423.423 0 010-.59.448.448 0 01.61 0l6.61 6.37a.394.394 0 010 .58.423.423 0 01-.3.12zm-16.64 0a.423.423 0 01-.3-.12.394.394 0 010-.58l6.61-6.37a.448.448 0 01.61 0 .423.423 0 010 .59L.98 12.01a.423.423 0 01-.3.12z"></path>
  </symbol>
  <symbol viewBox="0 0 18 14.81" id="typing">
    <path d="M3 14.81a.415.415 0 01-.16-.03.42.42 0 01-.27-.38v-2.07H1.29A1.262 1.262 0 010 11.1V1.23A1.262 1.262 0 011.29 0h15.42A1.262 1.262 0 0118 1.23v9.87a1.262 1.262 0 01-1.29 1.23H5.77L3.3 14.69a.423.423 0 01-.3.12zM1.29.82a.423.423 0 00-.43.41v9.87a.423.423 0 00.43.41H3a.417.417 0 01.43.41v1.49l1.86-1.78a.407.407 0 01.3-.12h11.12a.423.423 0 00.43-.41V1.23a.423.423 0 00-.43-.41H1.29zm4.77 5.34a.646.646 0 11-.65-.61.63.63 0 01.65.61zm3.58 0a.64.64 0 01-1.28 0A.619.619 0 019 5.55a.626.626 0 01.64.61zm3.35 0a.646.646 0 11-.65-.61.63.63 0 01.65.61z"></path>
  </symbol>
  <symbol viewBox="0 0 13.687 13.16" id="user-input">
    <path d="M13.257 13.17H.424a.426.426 0 01-.428-.42 6.85 6.85 0 0113.689 0 .426.426 0 01-.428.42zm-12.39-.83h11.947a6.011 6.011 0 00-11.947 0zM6.841 7a3.5 3.5 0 113.636-3.5A3.574 3.574 0 016.841 7zm0-6.17a2.672 2.672 0 102.78 2.67A2.732 2.732 0 006.841.83z"></path>
  </symbol>
  <symbol viewBox="0 0 22 9" id="arrow-left">
    <path d="M21.7 3.53H4.76l.1-2.86a.3.3 0 00.08-.2.323.323 0 00-.08-.21L4.68.09a.267.267 0 00-.4 0L.08 4.3a.3.3 0 00-.08.2.323.323 0 00.08.21l4.2 4.21a.29.29 0 00.4 0l.18-.17a.323.323 0 00.08-.21.3.3 0 00-.08-.2l-.12-2.86h16.97a.3.3 0 00.29-.3V3.81a.291.291 0 00-.3-.28z"></path>
  </symbol>
  <symbol viewBox="0 0 37 33.968" id="contacts-envelope">
    <path d="M.975 33.98a.957.957 0 01-.669-.272.922.922 0 01-.278-.659L0 12.848v-.017a.927.927 0 01.408-.754L5.73 8.461V4.623a.94.94 0 01.948-.932h6.067L17.962.145a.961.961 0 011.079 0l5.185 3.545h6.093a.94.94 0 01.947.932v3.882l5.3 3.621a.933.933 0 01.373.519.528.528 0 01.034.184L37 32.999a.941.941 0 01-.946.933L.977 33.98zm2.773-1.867l29.478-.041-14.712-11.224zm-1.828-.965l11.443-8.73L1.9 14.625zM23.64 22.4l11.461 8.744-.023-16.565zM7.626 16.252l7.308 4.968 3-2.288a.959.959 0 011.148-.008l.013.008 2.977 2.272 7.3-4.993V5.555H7.626v10.7zm-5.013-3.408l3.118 2.121v-4.241zm28.654 2.072l3.028-2.071-3.028-2.07v4.141zM16.079 3.691h4.828L18.5 2.046zm-3.994 12.3a.933.933 0 110-1.865h12.83a.933.933 0 110 1.865h-12.83zm0-4.847a.932.932 0 110-1.864h12.83a.932.932 0 110 1.864h-12.83z"></path>
  </symbol>
  <symbol viewBox="0 0 31 44" id="contacts-marker">
    <path d="M14.6 43.809l-6.584-2.917-5.674 2.51a1.651 1.651 0 01-1.864-.355 1.634 1.634 0 01-.313-1.862l4.994-10.516a1.103 1.103 0 111.972.987L2.788 40.8l4.32-1.914a2.227 2.227 0 011.806 0l6.583 2.916h.011l6.585-2.917a2.223 2.223 0 011.8 0l4.32 1.914-4.342-9.145a1.093 1.093 0 01.174-1.275 1.107 1.107 0 011.8.288l4.994 10.518a1.656 1.656 0 01-2.176 2.216L23 40.892l-6.594 2.917a2.23 2.23 0 01-1.806 0zm-1.947-7.6L3.1 20.283c-.011-.02-.023-.041-.033-.062a13.944 13.944 0 1126.39-6.327 13.691 13.691 0 01-1.528 6.327l-.034.062-9.548 15.927a3.326 3.326 0 01-5.697 0zm2.683-34.012A11.783 11.783 0 003.75 13.822a11.521 11.521 0 001.269 5.366l9.529 15.9a1.114 1.114 0 001.91 0l9.528-15.9a11.665 11.665 0 00-2.231-13.625 11.7 11.7 0 00-8.247-3.368zm-4.884 11.7a5.051 5.051 0 115.051 5.027 5.044 5.044 0 01-5.054-5.03zm2.206 0a2.845 2.845 0 102.845-2.83 2.842 2.842 0 00-2.848 2.827z"></path>
  </symbol>
  <symbol viewBox="0 0 37 44" id="contacts-phone">
    <path d="M13.44 39.016a5.06 5.06 0 115.06 5 5.034 5.034 0 01-5.06-5zm1.97 0a3.085 3.085 0 103.09-3.045 3.074 3.074 0 00-3.09 3.045zM26.88 27.68a5.06 5.06 0 115.06 5 5.033 5.033 0 01-5.06-5zm1.98 0a3.085 3.085 0 103.08-3.046 3.066 3.066 0 00-3.08 3.046zm-15.42 0a5.06 5.06 0 115.06 5 5.033 5.033 0 01-5.06-5zm1.97 0a3.085 3.085 0 103.09-3.046 3.075 3.075 0 00-3.09 3.046zM0 27.68a5.06 5.06 0 115.06 5 5.033 5.033 0 01-5.06-5zm1.97 0a3.085 3.085 0 103.09-3.046 3.075 3.075 0 00-3.09 3.046zm24.91-11.337a5.06 5.06 0 115.06 5 5.034 5.034 0 01-5.06-5zm1.98 0a3.085 3.085 0 103.08-3.045 3.064 3.064 0 00-3.08 3.045zm-15.42 0a5.06 5.06 0 115.06 5 5.034 5.034 0 01-5.06-5zm1.97 0a3.085 3.085 0 103.09-3.045 3.073 3.073 0 00-3.09 3.045zm-15.41 0a5.06 5.06 0 115.06 5 5.034 5.034 0 01-5.06-5zm1.97 0a3.085 3.085 0 103.09-3.045 3.073 3.073 0 00-3.09 3.045zM26.88 5.007a5.06 5.06 0 115.06 5 5.033 5.033 0 01-5.06-5zm1.98 0a3.085 3.085 0 103.08-3.046 3.066 3.066 0 00-3.08 3.046zm-15.42 0a5.06 5.06 0 115.06 5 5.033 5.033 0 01-5.06-5zm1.97 0a3.085 3.085 0 103.09-3.046 3.075 3.075 0 00-3.09 3.046zM0 5.007a5.06 5.06 0 115.06 5 5.033 5.033 0 01-5.06-5zm1.97 0a3.085 3.085 0 103.09-3.046 3.075 3.075 0 00-3.09 3.046z"></path>
  </symbol>
</svg>